<svg width="19" height="17" viewBox="0 0 19 17" fill="none" xmlns="http://www.w3.org/2000/svg">
<path d="M9.37104 17L13.2828 6.8H15.0882L19 17H17.1946L16.2704 14.4075H12.1007L11.1765 17H9.37104ZM2.57919 14.45L1.37557 13.26L5.71719 8.9675C5.21569 8.47167 4.7606 7.905 4.35195 7.2675C3.94329 6.63 3.5673 5.9075 3.22398 5.1H5.02941C5.31599 5.6525 5.60256 6.13417 5.88914 6.545C6.17572 6.95583 6.51961 7.36667 6.92081 7.7775C7.39367 7.31 7.88457 6.65465 8.39353 5.81145C8.90249 4.96825 9.28564 4.16443 9.54299 3.4H0V1.7H6.0181V0H7.73756V1.7H13.7557V3.4H11.2624C10.9615 4.42 10.5102 5.46833 9.90837 6.545C9.30656 7.62167 8.71192 8.44333 8.12443 9.01L10.1878 11.0925L9.54299 12.835L6.92081 10.1788L2.57919 14.45ZM12.638 12.92H15.733L14.1855 8.585L12.638 12.92Z" fill="white"/>
</svg>
